<svg width="407" height="356" viewBox="0 0 407 356" fill="none" xmlns="http://www.w3.org/2000/svg">
<g clip-path="url(#clip0_238_2507)">
<g opacity="0.32">
<path d="M56.4976 -594.016L242.35 -525.254C285.947 -509.124 317.675 -471.022 325.646 -425.225L359.625 -229.995L393.604 -34.7656C401.575 11.0319 433.303 49.1334 476.901 65.2637L662.753 134.026" stroke="white" stroke-width="5" stroke-linecap="round" stroke-linejoin="round"/>
<path d="M-161.589 -412.411L24.2627 -343.649C67.8604 -327.518 99.5883 -289.417 107.559 -243.619L141.538 -48.3898L175.517 146.84C183.488 192.637 215.216 230.739 258.814 246.869L444.666 315.631" stroke="white" stroke-width="5" stroke-linecap="round" stroke-linejoin="round"/>
<path d="M92.398 -623.911L278.25 -555.149C321.848 -539.019 353.576 -500.918 361.547 -455.12L395.526 -259.891L429.505 -64.661C437.476 -18.8634 469.204 19.238 512.801 35.3684L698.653 104.13" stroke="white" stroke-width="5" stroke-linecap="round" stroke-linejoin="round"/>
<path d="M-125.689 -442.306L60.1634 -373.544C103.761 -357.413 135.489 -319.312 143.46 -273.514L177.439 -78.2849L211.418 116.945C219.389 162.742 251.117 200.844 294.715 216.974L480.567 285.736" stroke="white" stroke-width="5" stroke-linecap="round" stroke-linejoin="round"/>
<path d="M128.299 -653.806L314.151 -585.044C357.748 -568.914 389.476 -530.813 397.447 -485.015L431.426 -289.786L465.405 -94.556C473.376 -48.7585 505.104 -10.657 548.702 5.47337L734.554 74.2352" stroke="white" stroke-width="5" stroke-linecap="round" stroke-linejoin="round"/>
<path d="M-89.7883 -472.201L96.0637 -403.439C139.661 -387.309 171.389 -349.207 179.36 -303.41L213.339 -108.18L247.318 87.0493C255.289 132.847 287.017 170.948 330.615 187.079L516.467 255.84" stroke="white" stroke-width="5" stroke-linecap="round" stroke-linejoin="round"/>
<path d="M20.5975 -564.121L206.449 -495.36C250.047 -479.229 281.775 -441.128 289.746 -395.33L323.725 -200.101L357.704 -4.87107C365.675 40.9265 397.403 79.0279 441.001 95.1583L626.853 163.92" stroke="white" stroke-width="5" stroke-linecap="round" stroke-linejoin="round"/>
<path opacity="0.7" d="M-197.489 -382.516L-11.6374 -313.754C31.9603 -297.624 63.6882 -259.522 71.6591 -213.725L105.638 -18.495L139.617 176.735C147.588 222.532 179.316 260.634 222.914 276.764L408.766 345.526" stroke="white" stroke-width="5" stroke-linecap="round" stroke-linejoin="round"/>
<path d="M-15.3031 -534.226L170.549 -465.464C214.147 -449.334 245.874 -411.232 253.845 -365.435L287.824 -170.205L321.804 25.0242C329.774 70.8217 361.502 108.923 405.1 125.054L590.952 193.815" stroke="white" stroke-width="5" stroke-linecap="round" stroke-linejoin="round"/>
<path opacity="0.5" d="M-233.39 -352.621L-47.5381 -283.859C-3.94035 -267.729 27.7875 -229.627 35.7584 -183.83L69.7375 11.4L103.717 206.63C111.688 252.427 143.415 290.529 187.013 306.659L372.865 375.421" stroke="white" stroke-width="5" stroke-linecap="round" stroke-linejoin="round"/>
<path d="M-51.2038 -504.331L134.648 -435.569C178.246 -419.439 209.974 -381.337 217.945 -335.54L251.924 -140.31L285.903 54.9192C293.874 100.717 325.602 138.818 369.199 154.949L555.051 223.71" stroke="white" stroke-width="5" stroke-linecap="round" stroke-linejoin="round"/>
<path opacity="0.2" d="M-269.29 -322.726L-83.4385 -253.964C-39.8407 -237.833 -8.11287 -199.732 -0.141956 -153.934L33.8371 41.295L67.8162 236.525C75.7872 282.322 107.515 320.424 151.113 336.554L336.965 405.316" stroke="white" stroke-width="5" stroke-linecap="round" stroke-linejoin="round"/>
</g>
</g>
<defs>
<clipPath id="clip0_238_2507">
<rect width="407" height="356" fill="white"/>
</clipPath>
</defs>
</svg>
