<svg width="35" height="39" viewBox="0 0 35 39" fill="none" xmlns="http://www.w3.org/2000/svg">
<path d="M18.6666 8.16675L18.6666 5.83341C18.6666 3.50008 17.4999 2.33341 15.1666 2.33341L12.8333 2.33341C10.4999 2.33341 9.33325 3.50008 9.33325 5.83342L9.33325 8.16675C9.33325 10.5001 10.4999 11.6667 12.8333 11.6667L15.1666 11.6667C17.4999 11.6667 18.6666 10.5001 18.6666 8.16675ZM32.6666 8.16675L32.6666 5.83341C32.6666 3.50008 31.4999 2.33341 29.1666 2.33341L26.8333 2.33341C24.4999 2.33341 23.3333 3.50008 23.3333 5.83341L23.3333 8.16675C23.3333 10.5001 24.4999 11.6667 26.8333 11.6667L29.1666 11.6667C31.4999 11.6667 32.6666 10.5001 32.6666 8.16675ZM32.6666 22.1667L32.6666 19.8334C32.6666 17.5001 31.4999 16.3334 29.1666 16.3334L26.8333 16.3334C24.4999 16.3334 23.3333 17.5001 23.3333 19.8334L23.3333 22.1667C23.3333 24.5001 24.4999 25.6667 26.8333 25.6667L29.1666 25.6667C31.4999 25.6667 32.6666 24.5001 32.6666 22.1667Z" stroke="#DBDBDC" stroke-width="2.53571" stroke-miterlimit="10" stroke-linecap="round" stroke-linejoin="round"/>
<g filter="url(#filter0_d_42_90)">
<path d="M19 19.75L19 22.25C19 24.75 17.75 26 15.25 26L12.75 26C10.25 26 9 24.75 9 22.25L9 19.75C9 17.25 10.25 16 12.75 16L15.25 16C17.75 16 19 17.25 19 19.75Z" stroke="#3161EB" stroke-width="2.53571" stroke-miterlimit="10" stroke-linecap="round" stroke-linejoin="round" shape-rendering="crispEdges"/>
</g>
<defs>
<filter id="filter0_d_42_90" x="0.732178" y="11.7322" width="26.5356" height="26.5356" filterUnits="userSpaceOnUse" color-interpolation-filters="sRGB">
<feFlood flood-opacity="0" result="BackgroundImageFix"/>
<feColorMatrix in="SourceAlpha" type="matrix" values="0 0 0 0 0 0 0 0 0 0 0 0 0 0 0 0 0 0 127 0" result="hardAlpha"/>
<feOffset dy="4"/>
<feGaussianBlur stdDeviation="3.5"/>
<feComposite in2="hardAlpha" operator="out"/>
<feColorMatrix type="matrix" values="0 0 0 0 0.192157 0 0 0 0 0.380392 0 0 0 0 0.921569 0 0 0 0.45 0"/>
<feBlend mode="normal" in2="BackgroundImageFix" result="effect1_dropShadow_42_90"/>
<feBlend mode="normal" in="SourceGraphic" in2="effect1_dropShadow_42_90" result="shape"/>
</filter>
</defs>
</svg>
