<svg width="1440" height="960" viewBox="0 0 1440 960" fill="none" xmlns="http://www.w3.org/2000/svg">
<g clip-path="url(#clip0_234_2504)">
<path opacity="0.0526316" d="M1330.21 1339.29C1410.69 1329.51 1582.45 1248.9 1625.66 1004.73C1679.66 699.511 1493.04 461.658 1497.06 163.745C1500.04 -56.1373 1618.3 -583.303 1920.79 -751.051" stroke="#F8F8F8" stroke-width="2"/>
<path opacity="0.105263" d="M1188.52 1312.97C1269.58 1311.65 1448.83 1249.44 1517.32 1011.12C1602.94 713.222 1442.19 457.165 1477.34 161.304C1503.28 -57.0627 1676 -568.978 1994.37 -704.189" stroke="#F8F8F8" stroke-width="2"/>
<path opacity="0.157895" d="M1051.12 1275.56C1131.88 1282.72 1316.65 1239.59 1409.68 1009.73C1525.96 722.414 1392.86 450.958 1458.74 160.392C1507.37 -54.0677 1732.65 -545.125 2063.4 -646.317" stroke="#F8F8F8" stroke-width="2"/>
<path opacity="0.210526" d="M919.148 1227.56C998.714 1243.13 1186.98 1219.54 1303.52 1000.67C1449.2 727.083 1345.21 443.201 1441.1 161.113C1511.88 -47.089 1787.25 -511.908 2126.77 -577.972" stroke="#F8F8F8" stroke-width="2"/>
<path opacity="0.263158" d="M793.672 1169.61C871.175 1193.41 1060.88 1189.63 1199.66 984.141C1373.14 727.277 1299.39 434.08 1424.24 163.561C1516.39 -36.1024 1838.85 -469.59 2183.41 -499.803" stroke="#F8F8F8" stroke-width="2"/>
<path opacity="0.315789" d="M675.703 1102.43C750.293 1134.2 939.349 1150.28 1098.85 960.417C1298.23 723.094 1255.53 423.795 1407.98 167.808C1520.49 -21.1296 1886.49 -418.536 2232.33 -412.567" stroke="#F8F8F8" stroke-width="2"/>
<path opacity="0.368421" d="M566.159 1026.87C637.02 1066.26 823.361 1102.01 1001.83 929.86C1224.93 714.678 1213.75 412.555 1392.12 173.905C1523.76 -2.2359 1929.3 -359.208 2272.62 -317.122" stroke="#F8F8F8" stroke-width="2"/>
<path opacity="0.421053" d="M465.875 943.839C532.231 990.423 713.814 1045.45 909.304 892.905C1153.67 702.221 1174.13 400.585 1376.47 181.887C1525.81 20.4714 1966.43 -292.155 2303.47 -214.413" stroke="#F8F8F8" stroke-width="2"/>
<path opacity="0.473684" d="M375.58 854.359C436.702 907.623 611.538 981.331 821.903 850.054C1084.86 685.958 1136.74 388.113 1360.83 191.763C1526.22 46.8419 1997.12 -218.014 2324.18 -105.467" stroke="#F8F8F8" stroke-width="2"/>
<path opacity="0.526316" d="M295.891 759.504C351.111 818.865 517.285 910.445 740.22 801.876C1018.89 666.165 1101.62 375.375 1345 203.524C1524.64 76.6855 2020.64 -137.498 2334.15 8.6202" stroke="#F8F8F8" stroke-width="2"/>
<path opacity="0.578947" d="M227.312 660.412C276.025 725.22 431.715 833.669 664.778 748.998C956.105 643.159 1068.78 362.609 1328.79 217.14C1520.7 109.773 2036.37 -51.3903 2332.89 126.698" stroke="#F8F8F8" stroke-width="2"/>
<path opacity="0.631579" d="M170.229 558.271C211.901 627.816 355.402 751.944 596.038 692.099C896.833 617.292 1038.21 350.057 1312.01 232.564C1514.09 145.845 2043.78 39.4663 2320.06 247.573" stroke="#F8F8F8" stroke-width="2"/>
<path opacity="0.684211" d="M124.895 454.297C159.068 527.817 288.809 666.265 534.382 631.901C841.349 588.945 1009.89 337.952 1294.47 249.722C1504.51 184.602 2042.41 134.174 2295.43 370.02" stroke="#F8F8F8" stroke-width="2"/>
<path opacity="0.736842" d="M91.4348 349.727C117.736 426.416 232.295 577.667 480.115 569.161C789.89 558.527 983.743 326.526 1275.98 268.526C1491.68 225.718 2031.91 231.793 2258.89 492.794" stroke="#F8F8F8" stroke-width="2"/>
<path opacity="0.789474" d="M69.8513 245.808C87.9926 324.826 186.113 487.224 433.465 504.668C742.654 526.473 959.696 316.007 1256.4 288.872C1475.39 268.844 2012.03 331.355 2210.47 614.652" stroke="#F8F8F8" stroke-width="2"/>
<path opacity="0.842105" d="M60.0065 143.776C69.7888 224.258 150.397 396.022 394.57 439.226C699.787 493.231 937.639 306.604 1235.55 310.631C1455.43 313.604 1982.6 431.867 2150.35 734.355" stroke="#F8F8F8" stroke-width="2"/>
<path opacity="0.894737" d="M61.6411 44.848C62.9572 125.911 125.169 305.161 363.489 373.651C661.388 459.264 917.446 298.522 1213.31 333.668C1431.67 359.608 1943.59 532.327 2078.8 850.692" stroke="#F8F8F8" stroke-width="2"/>
<path opacity="0.947368" d="M74.3675 -49.7926C67.203 30.9643 110.338 215.735 340.192 308.761C627.511 425.044 898.968 291.947 1189.53 357.827C1403.99 406.45 1895.05 631.733 1996.24 962.487" stroke="#F8F8F8" stroke-width="2"/>
<path d="M97.6763 -139.01C82.1096 -59.444 105.694 128.823 324.566 245.366C598.156 391.045 882.038 287.052 1164.13 382.943C1372.33 453.718 1837.15 729.095 1903.21 1068.62" stroke="#F8F8F8" stroke-width="2"/>
<rect width="1440" height="960" fill="url(#paint0_linear_234_2504)"/>
</g>
<defs>
<linearGradient id="paint0_linear_234_2504" x1="720" y1="789.5" x2="720" y2="945.5" gradientUnits="userSpaceOnUse">
<stop stop-color="white" stop-opacity="0"/>
<stop offset="1" stop-color="white"/>
</linearGradient>
<clipPath id="clip0_234_2504">
<rect width="1440" height="960" fill="white"/>
</clipPath>
</defs>
</svg>
