<svg width="620" height="142" viewBox="0 0 620 142" fill="none" xmlns="http://www.w3.org/2000/svg">
<path d="M43.0625 108.25C50.1458 108.25 56.6667 106.333 62.625 102.5C65.4167 105.583 66.8125 108.604 66.8125 111.562C66.8125 114.396 63.875 116.562 58 118.062C52.1667 119.521 45.3333 120.25 37.5 120.25C24.8333 120.25 15.4167 117.479 9.25 111.938C3.08333 106.396 0 96.0417 0 80.875C0 64.25 3.6875 52.0208 11.0625 44.1875C18.4375 36.3542 28.8958 32.4375 42.4375 32.4375C51.3125 32.4375 57.4583 33.0833 60.875 34.375C64.2917 35.625 66 37.9375 66 41.3125C66 43.9375 64.6667 46.7708 62 49.8125C54.125 46.2292 46.5833 44.4375 39.375 44.4375C33.3333 44.4375 28.8333 46.6042 25.875 50.9375C22.9583 55.2708 21.5 63.0625 21.5 74.3125C21.5 87.6042 23.0833 96.5833 26.25 101.25C29.4583 105.917 35.0625 108.25 43.0625 108.25Z" fill="black"/>
<path d="M107.375 74.25H112.438C117.812 74.25 121.917 73.25 124.75 71.25C127.625 69.2083 129.062 65.9792 129.062 61.5625C129.062 55.8542 127.646 51.7917 124.812 49.375C122.021 46.9167 118.458 45.6875 114.125 45.6875C111.5 45.6875 109.354 45.8958 107.688 46.3125C107.479 48.9375 107.375 56.375 107.375 68.625V74.25ZM116.75 110.438C117.458 111.938 117.812 113.479 117.812 115.062C117.812 116.521 117.542 117.542 117 118.125C116.458 118.708 115.604 119 114.438 119H79.3125C78.5625 117.167 78.1875 115.396 78.1875 113.688C78.1875 112.562 78.5 111.75 79.125 111.25C79.75 110.708 80.6667 110.438 81.875 110.438H87.6875C87.8958 105.104 88 91.1458 88 68.5625C88 56.3542 87.8958 47.5833 87.6875 42.25H79.375C78.6667 40.4167 78.3125 38.6667 78.3125 37C78.3125 35.8333 78.6042 35 79.1875 34.5C79.8125 33.9583 80.7292 33.6875 81.9375 33.6875H114.375C127.375 33.6875 136.646 35.5 142.188 39.125C147.771 42.75 150.562 48.5417 150.562 56.5C150.562 67.5 143.75 75.125 130.125 79.375C133.542 80.7917 136.438 83 138.812 86C141.188 88.9583 143.688 93.125 146.312 98.5C148.938 103.833 151.083 107.167 152.75 108.5C154.458 109.792 156.917 110.438 160.125 110.438C161.25 114.146 161.125 116.708 159.75 118.125C158.375 119.542 154.896 120.25 149.312 120.25C142.812 120.25 138.312 119.562 135.812 118.188C133.354 116.771 131.125 112.521 129.125 105.438C127.125 98.3125 124.958 93.0417 122.625 89.625C120.333 86.1667 117.167 84.4375 113.125 84.4375C110.958 84.4375 109.042 84.6458 107.375 85.0625C107.417 97.4792 107.521 105.938 107.688 110.438H116.75Z" fill="black"/>
<path d="M169.5 80.3125C169.5 64.0625 173.271 52.0208 180.812 44.1875C188.396 36.3542 198.729 32.4375 211.812 32.4375C224.146 32.4375 233.5 35.3125 239.875 41.0625C246.292 46.7708 249.5 57.2083 249.5 72.375C249.5 88.625 245.708 100.667 238.125 108.5C230.583 116.333 220.083 120.25 206.625 120.25C194.625 120.25 185.438 117.396 179.062 111.688C172.688 105.938 169.5 95.4792 169.5 80.3125ZM191 74.25C191 87.625 192.688 96.6458 196.062 101.312C199.438 105.938 204.146 108.25 210.188 108.25C216.521 108.25 221.062 106 223.812 101.5C226.562 96.9583 227.938 89.2708 227.938 78.4375C227.938 64.6875 226.25 55.5833 222.875 51.125C219.542 46.6667 214.833 44.4375 208.75 44.4375C202.417 44.4375 197.875 46.7083 195.125 51.25C192.375 55.75 191 63.4167 191 74.25Z" fill="black"/>
<path d="M377.125 33.6875C377.875 35.2292 378.25 36.7708 378.25 38.3125C378.25 39.8125 377.979 40.8542 377.438 41.4375C376.896 41.9792 376.021 42.25 374.812 42.25H371.812C369.479 51.125 366.146 64.7083 361.812 83C357.479 101.292 354.396 112.062 352.562 115.312C350.729 118.562 346.688 120.188 340.438 120.188C333.062 120.188 329 119.958 328.25 119.5C327.542 119.042 325.521 108.729 322.188 88.5625C318.896 68.3542 317.146 58.25 316.938 58.25C316.729 58.25 315.042 66.9583 311.875 84.375C308.75 101.75 306.271 112.062 304.438 115.312C302.604 118.562 298.562 120.188 292.312 120.188C285.688 120.188 282.021 119.958 281.312 119.5C280.604 119.042 277.833 108.312 273 87.3125C268.208 66.2708 264.375 51.25 261.5 42.25H256.25C255.542 40.4167 255.188 38.6667 255.188 37C255.188 35.8333 255.5 35 256.125 34.5C256.75 33.9583 257.667 33.6875 258.875 33.6875H289.938C290.646 35.2292 291 36.7708 291 38.3125C291 39.8125 290.729 40.8542 290.188 41.4375C289.646 41.9792 288.771 42.25 287.562 42.25H284.5C284.958 47.5833 286.75 58.9167 289.875 76.25C293 93.5417 294.958 102.188 295.75 102.188C296.542 102.188 298.875 91 302.75 68.625C306.625 46.25 308.896 34.8333 309.562 34.375C310.271 33.9167 315.062 33.6875 323.938 33.6875C327.062 33.6875 329.208 34.3125 330.375 35.5625C331.583 36.7708 334.042 48.1875 337.75 69.8125C341.458 91.3958 343.688 102.188 344.438 102.188C345.229 102.188 347.062 93.625 349.938 76.5C352.812 59.375 354.396 47.9583 354.688 42.25H349.438C348.688 40.4167 348.312 38.6667 348.312 37C348.312 35.8333 348.625 35 349.25 34.5C349.875 33.9583 350.792 33.6875 352 33.6875H377.125Z" fill="black"/>
<path d="M420.75 45.6875C417.75 45.6875 415.146 45.8958 412.938 46.3125C412.729 52.1458 412.625 65.6667 412.625 86.875C412.625 96.75 413.229 102.583 414.438 104.375C415.646 106.125 418.792 107 423.875 107C429.917 107 434.521 105.021 437.688 101.062C440.854 97.1042 442.438 89.1458 442.438 77.1875C442.438 65.3958 440.562 57.2083 436.812 52.625C433.104 48 427.75 45.6875 420.75 45.6875ZM414.75 33.6875C433.583 33.6875 446.5 36.6875 453.5 42.6875C460.5 48.6458 464 58.5625 464 72.4375C464 87.8125 460.375 99.4167 453.125 107.25C445.917 115.083 433.667 119 416.375 119L385.812 119.062C385.062 117.229 384.688 115.458 384.688 113.75C384.688 112.625 385 111.812 385.625 111.312C386.25 110.771 387.167 110.5 388.375 110.5H392.938C393.188 105.125 393.312 91.1458 393.312 68.5625C393.312 56.3542 393.188 47.5833 392.938 42.25H385.812C385.062 40.4167 384.688 38.6667 384.688 37C384.688 35.8333 385 35 385.625 34.5C386.25 33.9583 387.167 33.6875 388.375 33.6875H414.75Z" fill="black"/>
<path d="M471 0H519.407L568.469 70.7812L518.416 141.562H471L519.735 70.7812L471 0Z" fill="black"/>
<path d="M576.476 81.2244L618.751 141.562H571.231L552.225 115L576.476 81.2244Z" fill="black"/>
<path d="M555.927 31.9746L552.225 26.5701L570.821 0H619.525L576.661 61.1117L572.22 55.5465C572.22 55.5465 607.347 7.50203 606.688 7.09183C606.029 6.68163 574.026 6.84655 574.026 6.84655L555.927 31.9746Z" fill="black"/>
</svg>
